# xmcd
#
# Track frame offsets: 
#        150
#        13657
#        23787
#        36582
#        48267
#        61850
#        73135
#        83557
#        94135
#        108312
#        120425
#        132417
#        143677
#        155575
#        166200
#
# Disc length: 2431 seconds
#
# Revision: 2
# Processed by: cddbd v1.5.2PL0 Copyright (c) Steve Scherf et al.
# Submitted via: ExactAudioCopy v1.0b3
#
DISCID=c3097d0f
DTITLE=坂本 九 - 坂本 九 ベスト30
DYEAR=2003
DGENRE=JPop
TTITLE0=悲しき六十才(ムスターファ)
TTITLE1=ステキなタイミング
TTITLE2=遙かなるアラモ
TTITLE3=砂漠の恋の物語
TTITLE4=九ちゃんのズンタタッタ(聞いちゃいけないよ)
TTITLE5=カレンダーガール
TTITLE6=月夜に歩けば
TTITLE7=九ちゃん音頭(それが浮世と云うものさ)
TTITLE8=上を向いて歩こう
TTITLE9=モデル・ガール
TTITLE10=戦場に陽は落ちて
TTITLE11=もう一人のボク
TTITLE12=ボクの星
TTITLE13=レッツ・ゴー物語
TTITLE14=一人ぼっちの二人
EXTD=
EXTT0=
EXTT1=
EXTT2=
EXTT3=
EXTT4=
EXTT5=
EXTT6=
EXTT7=
EXTT8=
EXTT9=
EXTT10=
EXTT11=
EXTT12=
EXTT13=
EXTT14=
PLAYORDER=
